<svg id="Grupo_57833" data-name="Grupo 57833" xmlns="http://www.w3.org/2000/svg" xmlns:xlink="http://www.w3.org/1999/xlink" width="254" height="36.142" viewBox="0 0 254 36.142">
  <defs>
    <clipPath id="clip-path">
      <rect id="Rectángulo_7631" data-name="Rectángulo 7631" width="254" height="36.142"/>
    </clipPath>
  </defs>
  <path id="Trazado_62147" data-name="Trazado 62147" d="M15.058,105.489,9.915,118.384H9.687L4.548,105.5l0-.01H0v29.235H3.253V110.833H3.56L9.7,125.85l.015.038,6.158-15.055h.307v23.892h3.253V105.489Z" transform="translate(0 -101.96)"/>
  <path id="Trazado_62148" data-name="Trazado 62148" d="M842.186,105.488H837.52L828.569,134.7l-.007.022h3.673l2.467-8.329h10.219l2.467,8.329h3.756L842.19,105.5Zm-6.638,17.829,4.088-14.074h.351l4.088,14.074Z" transform="translate(-800.846 -101.959)"/>
  <path id="Trazado_62149" data-name="Trazado 62149" d="M2652.465,134.723h18.013v-3.077H2656.01v-10.2h13.966v-3.077H2656.01v-9.8h14.467v-3.077h-18.013Z" transform="translate(-2563.74 -101.959)"/>
  <g id="Grupo_57592" data-name="Grupo 57592">
    <g id="Grupo_57591" data-name="Grupo 57591" clip-path="url(#clip-path)">
      <path id="Trazado_62150" data-name="Trazado 62150" d="M3490.356,96.194a5.661,5.661,0,0,1,5.149-2.628,6.194,6.194,0,0,1,2.252.375,5.108,5.108,0,0,1,1.646,1.021,6.26,6.26,0,0,1,1.168,1.5,14.665,14.665,0,0,1,.856,1.817l.006.016,3.041-1.394-.006-.015a14.634,14.634,0,0,0-1.172-2.323,8.952,8.952,0,0,0-1.78-2.071,8.173,8.173,0,0,0-2.577-1.463,10.565,10.565,0,0,0-3.56-.543,10.363,10.363,0,0,0-4.628.975,8.226,8.226,0,0,0-3.247,2.924,14.525,14.525,0,0,0-1.915,4.806,30.765,30.765,0,0,0-.638,6.624,31.293,31.293,0,0,0,.581,6.363,15.1,15.1,0,0,0,1.742,4.691,7.776,7.776,0,0,0,2.938,2.893,8.633,8.633,0,0,0,4.163.964,8,8,0,0,0,2.6-.378,6.412,6.412,0,0,0,1.866-.987,5.566,5.566,0,0,0,1.279-1.408,13.333,13.333,0,0,0,.875-1.627h.181v3.9h3.3V105.741h-9.442v2.843h6.146v3a6.282,6.282,0,0,1-1.584,4.425,5.75,5.75,0,0,1-4.42,1.711,5.854,5.854,0,0,1-3.023-.73,5.625,5.625,0,0,1-2-2.065,9.843,9.843,0,0,1-1.106-3.154,22.48,22.48,0,0,1-.334-4.035v-4.519a13.156,13.156,0,0,1,1.649-7.02" transform="translate(-3368.38 -87.461)"/>
      <path id="Trazado_62151" data-name="Trazado 62151" d="M4404.826,123.041c0,1.416-.042,2.7-.126,3.807a8.44,8.44,0,0,1-.667,2.862,3.835,3.835,0,0,1-1.687,1.813,8.447,8.447,0,0,1-6.381,0,3.827,3.827,0,0,1-1.687-1.813,8.424,8.424,0,0,1-.667-2.862c-.083-1.11-.126-2.391-.126-3.807V105.488h-3.545V122.2a45.188,45.188,0,0,0,.313,5.692,10.445,10.445,0,0,0,1.3,4.065,6.127,6.127,0,0,0,2.81,2.454,14.468,14.468,0,0,0,9.588,0,6.125,6.125,0,0,0,2.809-2.454,10.449,10.449,0,0,0,1.3-4.065,45.188,45.188,0,0,0,.313-5.692V105.488h-3.545Z" transform="translate(-4243.097 -101.959)"/>
      <path id="Trazado_62152" data-name="Trazado 62152" d="M5294.561,119.606a8.46,8.46,0,0,0,1.844-5.7,8.612,8.612,0,0,0-2.137-6.2,8.246,8.246,0,0,0-6.2-2.221H5277.43v29.235h3.546V122.246h4.615l7.1,12.468,0,.008h3.97l-7.444-12.647a7.742,7.742,0,0,0,5.337-2.47m-13.585-.37V108.565h7.008a4.989,4.989,0,0,1,3.438,1.1,4.028,4.028,0,0,1,1.228,3.144v2.174a4.026,4.026,0,0,1-1.228,3.144,4.988,4.988,0,0,1-3.438,1.1Z" transform="translate(-5100.899 -101.959)"/>
      <path id="Trazado_62153" data-name="Trazado 62153" d="M6127.928,94.47a8.631,8.631,0,0,0-3.184-2.955,10.849,10.849,0,0,0-9.214,0,8.633,8.633,0,0,0-3.184,2.955,13.812,13.812,0,0,0-1.842,4.754,35.208,35.208,0,0,0,0,12.788,13.806,13.806,0,0,0,1.842,4.733,8.624,8.624,0,0,0,3.184,2.955,10.849,10.849,0,0,0,9.214,0,8.622,8.622,0,0,0,3.184-2.955,13.816,13.816,0,0,0,1.843-4.733,35.237,35.237,0,0,0,0-12.788,13.822,13.822,0,0,0-1.843-4.754m-1.327,13.524a20.62,20.62,0,0,1-.355,4,8.93,8.93,0,0,1-1.147,3.03,5.712,5.712,0,0,1-2,1.941,6.707,6.707,0,0,1-5.921,0,5.706,5.706,0,0,1-2-1.941,8.91,8.91,0,0,1-1.148-3.03,20.581,20.581,0,0,1-.355-4v-4.773a20.668,20.668,0,0,1,.355-3.975,8.925,8.925,0,0,1,1.148-3.051,5.709,5.709,0,0,1,2-1.941,6.707,6.707,0,0,1,5.921,0,5.714,5.714,0,0,1,2,1.941,8.935,8.935,0,0,1,1.147,3.051,20.708,20.708,0,0,1,.355,3.975Z" transform="translate(-5905.541 -87.461)"/>
      <path id="Trazado_62154" data-name="Trazado 62154" d="M6991.419,109.316a6.286,6.286,0,0,0-1.278-2.351,7.8,7.8,0,0,0-2.368-1.8,12.778,12.778,0,0,0-3.6-1.132l-3.136-.544a7.891,7.891,0,0,1-4.277-1.765,4.384,4.384,0,0,1-1.187-3.174,4.479,4.479,0,0,1,1.583-3.734,7.252,7.252,0,0,1,4.547-1.246,8.72,8.72,0,0,1,4.424,1,10.055,10.055,0,0,1,2.922,2.588l.011.014,2.491-2.154-.008-.012a9.95,9.95,0,0,0-3.874-3.329,13.4,13.4,0,0,0-5.924-1.186,11.335,11.335,0,0,0-7.119,2.056,6.468,6.468,0,0,0-1.981,2.551,8.866,8.866,0,0,0-.66,3.535,9.443,9.443,0,0,0,.377,2.664,6.648,6.648,0,0,0,1.258,2.351,7.426,7.426,0,0,0,2.326,1.826,12.447,12.447,0,0,0,3.58,1.132l3.262.544a7.93,7.93,0,0,1,4.214,1.682,4.427,4.427,0,0,1,1.208,3.3,5.132,5.132,0,0,1-1.667,4.068,7.189,7.189,0,0,1-4.839,1.454,9.308,9.308,0,0,1-4.529-1.043,12.425,12.425,0,0,1-3.611-3.174l-.011-.013-2.576,2.111.009.013a13.305,13.305,0,0,0,4.145,3.723,12.77,12.77,0,0,0,6.447,1.46,14.951,14.951,0,0,0,4.338-.576,8.77,8.77,0,0,0,3.221-1.731,7.376,7.376,0,0,0,2-2.749,9.394,9.394,0,0,0,.666-3.629,9.8,9.8,0,0,0-.377-2.727" transform="translate(-6737.796 -87.461)"/>
      <g id="Grupo_58178" data-name="Grupo 58178">
        <path id="Trazado_62155" data-name="Trazado 62155" d="M2032.311,257.554l-.914-3.653a1.221,1.221,0,0,0-.237-2.4l-.075,0a1.221,1.221,0,0,0-.312,2.4l-.914,3.653Z" transform="translate(-1961.961 -243.088)"/>
        <path id="Trazado_62156" data-name="Trazado 62156" d="M1791.268,4.649h0a4.772,4.772,0,0,1-1.2-.491,4.838,4.838,0,0,1-.9-.671,4.8,4.8,0,0,1-.859-1.086,4.8,4.8,0,0,1-.642-2.4h-.033a4.8,4.8,0,0,1-.642,2.4,4.8,4.8,0,0,1-.859,1.086,4.825,4.825,0,0,1-.9.671,4.774,4.774,0,0,1-1.2.491,4.81,4.81,0,0,1-1.2.151H1778V19.284h9.65a12.118,12.118,0,0,1,2.405.241,11.96,11.96,0,0,1,4.432,1.891c.125.086.25.176.372.268v2.4c0,.034,0,.068,0,.1,0,.018,0,.036,0,.054v.028c0,.059,0,.119-.005.178,0,.031,0,.063,0,.095s0,.091-.007.136,0,.071-.007.107-.005.075-.009.112l0,.043c0,.04-.007.079-.011.119v.013c0,.044-.009.087-.014.131,0,.019,0,.037-.007.057s-.008.066-.013.1c-.007.053-.014.106-.022.159q0,.034-.01.068c-.016.1-.032.2-.05.288-.008.042-.016.085-.025.128h0a9.71,9.71,0,0,0-1.587-1.767l-.033-.029-.009-.008-.139-.118c-.12-.1-.24-.193-.353-.278l-.146-.108-.019-.014-.007.023c-.012.039-.024.075-.038.112l0,.011a1.752,1.752,0,0,1-.157.312,1.791,1.791,0,0,1-2.407.6,1.837,1.837,0,0,1-.275-.2,1.806,1.806,0,0,1-.346-.4l-.011-.017-.015.014-.139.136-.016.016.019.011a1.508,1.508,0,0,1,.232.162,1.549,1.549,0,0,1,.151.148,1.508,1.508,0,0,1,.17.235,1.491,1.491,0,0,1,.12,1.243l0,.011.009.007a10.046,10.046,0,0,1,.986.97,9.917,9.917,0,0,1,1.854,3.065c.023.06.045.12.066.18l-.114.132-.043.048-.021.023c-.158.175-.322.345-.489.5l-.006.006-.086.082,0,0-.069.064-.023.022-.046.042a9.609,9.609,0,0,0-1.6-2.76,9.77,9.77,0,0,0-1.151-1.174l-.015-.012-.01.016a1.5,1.5,0,0,1-.247.289,1.489,1.489,0,0,1-1.8.149,1.519,1.519,0,0,1-.225-.177,1.485,1.485,0,0,1-.217-.261l-.01-.016-.015.012a9.788,9.788,0,0,0-1.151,1.174,9.607,9.607,0,0,0-1.6,2.76l-.064-.058-.069-.063-.077-.072c-.176-.167-.348-.345-.514-.529l-.064-.072c-.04-.046-.08-.092-.12-.139q.031-.086.063-.171a9.925,9.925,0,0,1,1.847-3.065,10.056,10.056,0,0,1,.982-.97l.009-.007,0-.011a1.5,1.5,0,0,1,.119-1.243,1.493,1.493,0,0,1,.32-.383,1.484,1.484,0,0,1,.231-.162l.019-.011-.016-.016c-.046-.046-.092-.091-.139-.136l-.015-.014-.011.017a1.8,1.8,0,0,1-.345.4,1.827,1.827,0,0,1-.274.2,1.785,1.785,0,0,1-2.555-.908l0-.01c-.013-.035-.026-.072-.038-.113l-.007-.023-.019.014-.145.108c-.115.086-.233.18-.352.278-.047.039-.093.078-.139.118l-.01.008-.033.029a9.707,9.707,0,0,0-1.58,1.764c-.008-.042-.016-.083-.024-.125-.017-.091-.034-.185-.05-.288,0-.022-.007-.045-.01-.068-.008-.053-.016-.106-.022-.159,0-.033-.009-.066-.013-.1v0c0-.018,0-.035-.006-.053s-.007-.061-.01-.091-.007-.071-.011-.107l0-.037q0-.035-.006-.07c-.005-.057-.009-.115-.013-.173,0-.024,0-.047,0-.071,0-.04,0-.08-.006-.121v-.006c0-.04,0-.08-.005-.12s0-.083,0-.125c0-.065,0-.131,0-.2V21.658H1778v2.473l0,0c0,.085,0,.172,0,.258,0,.067,0,.134,0,.2,0,.033,0,.067,0,.1,0,.017,0,.033,0,.049s0,.055,0,.082,0,.054,0,.081,0,.04,0,.062,0,.061,0,.091,0,.083.007.125v.013c0,.051.007.1.011.152s.008.1.013.151V25.5s0,.01,0,.013c0,.048.009.1.014.145,0,.025.005.049.008.074v0c0,.031.007.062.011.092,0,.008,0,.016,0,.023,0,.041.01.082.016.123s.011.08.017.122.01.069.015.1.011.07.016.1.008.049.012.074l0,.01.018.1c.017.1.036.2.057.3l.005.025c0,.016.006.031.01.047.01.05.021.1.033.15s.018.082.028.123c0,.02.009.039.014.061.009.038.018.077.028.115s.024.1.037.146l.039.145c.042.151.086.3.132.443.091.286.195.574.309.855.042.1.084.2.127.3.02.047.042.094.063.141l.038.083.019.04.02.042.032.067c.018.039.037.078.057.118l.018.036c.026.053.052.1.079.157l0,0q.04.078.082.155l.02.037.058.106.036.065.066.117.009.016c.03.053.062.106.093.159l.068.112.047.076.058.093.059.093.053.081,0,0,.014.021.014.021.037.054.063.092q.041.06.083.12c.071.1.144.2.217.3v0l.006,0,0,.006a12.124,12.124,0,0,0,1.029,1.2l.087.087.055.055.085.083c.243.235.5.463.764.679.124.1.253.2.382.3l0,.006h0c.08.06.152.113.22.161l.1.068.09.062.042.029.079.053.107.071.107.069.1.061.067.041.1.062,0,0,.13.077.13.075c.087.049.168.094.249.138l.087.046.009,0,.023.012.068.035.1.053.006,0,.1.051.171.083c.1.048.208.1.319.145l.1.044.033.014.11.046.073.03.095.038.1.041.211.078.106.037.069.024.106.036.224.072.105.032.106.031.139.04.1.027.134.035.135.034.138.033c.085.006.174.009.265.01h.125q.136,0,.267-.011l.016,0,.1-.025.15-.038.132-.035.157-.043.176-.052.069-.021.117-.036.028-.009.1-.033.144-.049.08-.028.073-.026c.246-.088.495-.187.739-.294.111-.049.219-.1.319-.145l.171-.083.1-.051.009,0,.1-.052.068-.035.024-.012.008,0,.086-.046c.081-.043.162-.089.249-.138l.13-.075.129-.077.005,0,.1-.063.068-.042.094-.06.107-.069.106-.071.079-.053.042-.029.09-.062.1-.068c.069-.049.141-.1.221-.162h0l0-.006.073-.055.156-.121.154-.123c.264-.215.521-.444.763-.679l.085-.083.055-.055.087-.087a12.187,12.187,0,0,0,1.03-1.2l0-.005.007,0v0c.073-.1.146-.2.216-.3l.086-.124.084-.123,0,0,.084-.128,0,0,.076-.12.009-.014.044-.07.046-.074c.036-.059.083-.136.128-.214l.046-.079c.028-.049.055-.1.083-.147l.043-.078,0,0c.045-.083.085-.158.121-.228l.059-.115.055-.11,0-.009.051-.106.047-.1.046-.1q.037-.081.073-.163c.042-.1.085-.2.127-.3.114-.281.218-.569.309-.855a12.011,12.011,0,0,0,.327-1.255c.01-.048.019-.1.028-.143s.014-.072.02-.108c0-.011,0-.023.006-.034l0-.017c.008-.048.016-.1.024-.143l.02-.127c.006-.037.011-.073.016-.11l0-.015c0-.01,0-.02,0-.029.006-.042.012-.084.017-.126,0-.019,0-.038.007-.056.006-.044.011-.087.016-.131v-.009c.012-.107.023-.215.032-.322,0-.016,0-.033,0-.048,0-.041.007-.082.01-.123V25.24c0-.054.007-.108.01-.162s.006-.1.008-.157v0c0-.039,0-.077,0-.115,0-.005,0-.011,0-.016,0-.036,0-.071,0-.107v-.005q0-.057,0-.114c0-.058,0-.115,0-.174,0-.086,0-.172,0-.258l0,0v-3.6l-.006,0c-.293-.262-.6-.514-.909-.749-.239-.181-.487-.357-.736-.523s-.506-.326-.766-.476a14.411,14.411,0,0,0-2.412-1.112l-.039-.014a14.332,14.332,0,0,0-2.372-.609,14.568,14.568,0,0,0-2.411-.2h-7.208v-9.6h2.392a7.225,7.225,0,0,0,2.414-.412c.1-.036.2-.075.3-.115a7.213,7.213,0,0,0,2.1-1.308,7.216,7.216,0,0,0,2.1,1.308c.1.04.2.079.3.115a7.225,7.225,0,0,0,2.414.412h2.392v4.816h2.442V4.8h-4.833a4.811,4.811,0,0,1-1.2-.151m-9.02,25.048-.009-.013V29.6l.009.01Zm10.8,0-.009.013v-.1l.009-.01Z" transform="translate(-1718.525)"/>
        <path id="Trazado_62157" data-name="Trazado 62157" d="M1933.844,620.979a1.672,1.672,0,0,0-2.3-.042l-.005,0a1.679,1.679,0,0,0-.177.19,1.669,1.669,0,0,0-.363,1.04,1.672,1.672,0,0,0,.1.573c.012.032.022.057.032.08a1.672,1.672,0,0,0,2.583.654,1.632,1.632,0,0,0,.174-.161,1.673,1.673,0,0,0,.174-2.074,1.69,1.69,0,0,0-.22-.265" transform="translate(-1866.408 -599.744)"/>
        <path id="Trazado_62158" data-name="Trazado 62158" d="M2023.486,728.845a1.523,1.523,0,0,0-1.629-.192,1.535,1.535,0,0,0-.3.2c-.021.018-.042.035-.061.054a1.517,1.517,0,0,0-.491,1.12,1.522,1.522,0,0,0,2.278,1.321,1.544,1.544,0,0,0,.333-.258,1.525,1.525,0,0,0,.207-.266,1.508,1.508,0,0,0,.181-.432,1.537,1.537,0,0,0,.044-.365,1.521,1.521,0,0,0-.23-.806,1.547,1.547,0,0,0-.234-.289c-.028-.027-.059-.055-.093-.082" transform="translate(-1953.396 -704.131)"/>
        <path id="Trazado_62159" data-name="Trazado 62159" d="M2102.132,622.825a1.672,1.672,0,0,0,2.583.654,1.637,1.637,0,0,0,.174-.161,1.672,1.672,0,0,0-2.346-2.381l-.005,0a1.743,1.743,0,0,0-.177.19,1.667,1.667,0,0,0-.363,1.04,1.677,1.677,0,0,0,.1.573c.012.032.022.057.032.08" transform="translate(-2031.688 -599.744)"/>
      </g>
    </g>
  </g>
</svg>
