<svg id="Grupo_57834" data-name="Grupo 57834" xmlns="http://www.w3.org/2000/svg" xmlns:xlink="http://www.w3.org/1999/xlink" width="147.891" height="21.044" viewBox="0 0 147.891 21.044">
  <defs>
    <clipPath id="clip-path">
      <rect id="Rectángulo_7631" data-name="Rectángulo 7631" width="147.891" height="21.044" fill="#fff"/>
    </clipPath>
  </defs>
  <path id="Trazado_62147" data-name="Trazado 62147" d="M8.768,105.489,5.773,113H5.64l-2.992-7.5,0-.006H0v17.022H1.894V108.6h.178l3.576,8.744.009.022L9.243,108.6h.178v13.911h1.894V105.489Z" transform="translate(0 -103.434)" fill="#fff"/>
  <path id="Trazado_62148" data-name="Trazado 62148" d="M836.495,105.488h-2.717l-5.212,17.01,0,.013H830.7l1.436-4.85h5.95l1.436,4.85h2.187L836.5,105.495Zm-3.865,10.381,2.38-8.195h.2l2.38,8.195Z" transform="translate(-812.425 -103.433)" fill="#fff"/>
  <path id="Trazado_62149" data-name="Trazado 62149" d="M2652.465,122.51h10.488v-1.792h-8.423v-5.94h8.131v-1.792h-8.131V107.28h8.423v-1.792h-10.488Z" transform="translate(-2600.805 -103.434)" fill="#fff"/>
  <g id="Grupo_57592" data-name="Grupo 57592">
    <g id="Grupo_57591" data-name="Grupo 57591" clip-path="url(#clip-path)">
      <path id="Trazado_62150" data-name="Trazado 62150" d="M3488.1,93.81a3.3,3.3,0,0,1,3-1.53,3.606,3.606,0,0,1,1.311.218,2.974,2.974,0,0,1,.958.594,3.642,3.642,0,0,1,.68.874,8.507,8.507,0,0,1,.5,1.058l0,.01,1.771-.812,0-.009a8.53,8.53,0,0,0-.682-1.352,5.215,5.215,0,0,0-1.037-1.206,4.762,4.762,0,0,0-1.5-.852,6.152,6.152,0,0,0-2.073-.316,6.033,6.033,0,0,0-2.694.567,4.789,4.789,0,0,0-1.891,1.7,8.458,8.458,0,0,0-1.115,2.8,17.907,17.907,0,0,0-.372,3.857,18.207,18.207,0,0,0,.338,3.7,8.78,8.78,0,0,0,1.014,2.731,4.527,4.527,0,0,0,1.711,1.684,5.027,5.027,0,0,0,2.424.561,4.656,4.656,0,0,0,1.512-.22,3.732,3.732,0,0,0,1.086-.575,3.237,3.237,0,0,0,.745-.82,7.743,7.743,0,0,0,.509-.947h.106v2.27h1.919V99.369h-5.5v1.655h3.579v1.745a3.658,3.658,0,0,1-.922,2.576,3.348,3.348,0,0,1-2.573,1,3.41,3.41,0,0,1-1.76-.425,3.277,3.277,0,0,1-1.165-1.2,5.732,5.732,0,0,1-.644-1.836,13.1,13.1,0,0,1-.194-2.349V97.9a7.658,7.658,0,0,1,.96-4.088" transform="translate(-3417.078 -88.726)" fill="#fff"/>
      <path id="Trazado_62151" data-name="Trazado 62151" d="M4398.608,115.708c0,.824-.025,1.57-.073,2.217a4.922,4.922,0,0,1-.389,1.666,2.232,2.232,0,0,1-.982,1.055,4.919,4.919,0,0,1-3.715,0,2.23,2.23,0,0,1-.982-1.055,4.914,4.914,0,0,1-.388-1.666c-.049-.646-.073-1.392-.073-2.217v-10.22h-2.064v9.729a26.274,26.274,0,0,0,.183,3.314,6.077,6.077,0,0,0,.756,2.367,3.569,3.569,0,0,0,1.636,1.429,8.424,8.424,0,0,0,5.583,0,3.567,3.567,0,0,0,1.636-1.429,6.084,6.084,0,0,0,.756-2.367,26.367,26.367,0,0,0,.183-3.314v-9.729h-2.064Z" transform="translate(-4304.441 -103.433)" fill="#fff"/>
      <path id="Trazado_62152" data-name="Trazado 62152" d="M5287.4,113.708a4.927,4.927,0,0,0,1.073-3.317,5.016,5.016,0,0,0-1.244-3.61,4.8,4.8,0,0,0-3.61-1.293h-6.193V122.51h2.064v-7.265h2.687l4.136,7.26,0,0h2.312l-4.334-7.364a4.509,4.509,0,0,0,3.107-1.438m-7.91-.215V107.28h4.08a2.906,2.906,0,0,1,2,.643,2.345,2.345,0,0,1,.714,1.831v1.266a2.344,2.344,0,0,1-.714,1.831,2.905,2.905,0,0,1-2,.643Z" transform="translate(-5174.645 -103.433)" fill="#fff"/>
      <path id="Trazado_62153" data-name="Trazado 62153" d="M6120.4,92.806a5.029,5.029,0,0,0-1.854-1.721,6.317,6.317,0,0,0-5.365,0,5.026,5.026,0,0,0-1.854,1.721,8.038,8.038,0,0,0-1.073,2.768,20.5,20.5,0,0,0,0,7.446,8.039,8.039,0,0,0,1.073,2.756,5.021,5.021,0,0,0,1.854,1.721,6.317,6.317,0,0,0,5.365,0,5.024,5.024,0,0,0,1.854-1.721,8.047,8.047,0,0,0,1.073-2.756,20.532,20.532,0,0,0,0-7.446,8.046,8.046,0,0,0-1.073-2.768m-.772,7.874a11.991,11.991,0,0,1-.207,2.326,5.2,5.2,0,0,1-.668,1.764,3.326,3.326,0,0,1-1.165,1.13,3.906,3.906,0,0,1-3.448,0,3.322,3.322,0,0,1-1.165-1.13,5.2,5.2,0,0,1-.668-1.764,12.009,12.009,0,0,1-.207-2.326V97.9a12.06,12.06,0,0,1,.207-2.314,5.205,5.205,0,0,1,.668-1.776,3.323,3.323,0,0,1,1.165-1.13,3.906,3.906,0,0,1,3.448,0,3.327,3.327,0,0,1,1.165,1.13,5.2,5.2,0,0,1,.668,1.776,12.042,12.042,0,0,1,.207,2.314Z" transform="translate(-5990.92 -88.726)" fill="#fff"/>
      <path id="Trazado_62154" data-name="Trazado 62154" d="M6982.879,101.45a3.657,3.657,0,0,0-.744-1.369,4.531,4.531,0,0,0-1.379-1.051,7.44,7.44,0,0,0-2.1-.659l-1.826-.316a4.594,4.594,0,0,1-2.49-1.028,2.551,2.551,0,0,1-.691-1.848,2.608,2.608,0,0,1,.922-2.174,4.222,4.222,0,0,1,2.647-.725,5.077,5.077,0,0,1,2.576.583,5.861,5.861,0,0,1,1.7,1.507l.006.008,1.451-1.254,0-.007a5.8,5.8,0,0,0-2.256-1.938,7.8,7.8,0,0,0-3.449-.69,6.6,6.6,0,0,0-4.145,1.2,3.76,3.76,0,0,0-1.153,1.485,5.159,5.159,0,0,0-.385,2.058,5.49,5.49,0,0,0,.22,1.551,3.873,3.873,0,0,0,.732,1.369,4.321,4.321,0,0,0,1.354,1.063,7.237,7.237,0,0,0,2.084.659l1.9.316a4.614,4.614,0,0,1,2.453.979,2.576,2.576,0,0,1,.7,1.921,2.986,2.986,0,0,1-.971,2.369,4.183,4.183,0,0,1-2.817.846,5.418,5.418,0,0,1-2.637-.607,7.231,7.231,0,0,1-2.1-1.848l-.007-.008-1.5,1.229.005.007a7.742,7.742,0,0,0,2.413,2.168,7.437,7.437,0,0,0,3.754.85,8.705,8.705,0,0,0,2.526-.336,5.108,5.108,0,0,0,1.875-1.008,4.292,4.292,0,0,0,1.161-1.6,5.464,5.464,0,0,0,.388-2.113,5.688,5.688,0,0,0-.22-1.588" transform="translate(-6835.208 -88.726)" fill="#fff"/>
      <path id="Trazado_62155" data-name="Trazado 62155" d="M2031.287,255.025l-.532-2.127a.711.711,0,0,0-.138-1.4h-.044a.711.711,0,0,0-.182,1.4l-.532,2.127Z" transform="translate(-1990.326 -246.602)" fill="#fff"/>
      <path id="Trazado_62156" data-name="Trazado 62156" d="M1785.725,2.707h0a2.778,2.778,0,0,1-.7-.286,2.817,2.817,0,0,1-.524-.391,2.8,2.8,0,0,1-.5-.633,2.8,2.8,0,0,1-.374-1.4h-.019a2.8,2.8,0,0,1-.374,1.4,2.8,2.8,0,0,1-.5.633,2.81,2.81,0,0,1-.523.391,2.779,2.779,0,0,1-.7.286,2.8,2.8,0,0,1-.7.088H1778v8.433h5.619a7.057,7.057,0,0,1,1.4.14,6.965,6.965,0,0,1,2.58,1.1c.073.05.145.1.216.156v1.4c0,.02,0,.04,0,.06s0,.021,0,.032v.016c0,.035,0,.069,0,.1,0,.018,0,.037,0,.055s0,.053,0,.079,0,.042,0,.063,0,.043,0,.065l0,.025c0,.023,0,.046-.007.069V14.6l-.008.076,0,.033-.007.058c0,.031-.008.062-.013.093,0,.013,0,.026-.006.039-.009.06-.019.114-.029.168,0,.025-.009.049-.014.075h0a5.654,5.654,0,0,0-.924-1.029l-.019-.017-.005,0-.081-.069c-.07-.058-.139-.112-.206-.162l-.085-.063-.011-.008,0,.013c-.007.023-.014.044-.022.065l0,.006a1.024,1.024,0,0,1-.091.182,1.043,1.043,0,0,1-1.4.347,1.066,1.066,0,0,1-.16-.114,1.021,1.021,0,0,1-.1-.1,1.038,1.038,0,0,1-.1-.131l-.006-.01-.009.008-.081.079-.009.009.011.006a.877.877,0,0,1,.135.094.906.906,0,0,1,.088.086.877.877,0,0,1,.1.137.868.868,0,0,1,.07.724l0,.006,0,0a5.841,5.841,0,0,1,.574.565,5.775,5.775,0,0,1,1.079,1.784c.013.035.026.07.039.1l-.066.077-.025.028-.012.013c-.092.1-.187.2-.284.294l0,0-.05.048,0,0-.04.037-.013.013-.027.024a5.593,5.593,0,0,0-.93-1.607,5.687,5.687,0,0,0-.67-.684l-.008-.007-.006.009a.867.867,0,0,1-1.193.255.888.888,0,0,1-.131-.1.863.863,0,0,1-.126-.152l-.006-.009-.009.007a5.7,5.7,0,0,0-.67.684,5.591,5.591,0,0,0-.929,1.607l-.037-.034-.04-.037-.045-.042c-.1-.1-.2-.2-.3-.308l-.037-.042-.07-.081q.018-.05.037-.1a5.779,5.779,0,0,1,1.075-1.784,5.855,5.855,0,0,1,.572-.565l.005,0,0-.006a.871.871,0,0,1,.069-.724.869.869,0,0,1,.186-.223.864.864,0,0,1,.134-.094l.011-.006-.009-.009-.081-.079-.009-.008-.006.01a1.05,1.05,0,0,1-.2.234,1.06,1.06,0,0,1-.159.114,1.039,1.039,0,0,1-1.488-.529l0-.006c-.008-.02-.015-.042-.022-.066l0-.013-.011.008-.085.063c-.067.05-.136.1-.2.162l-.081.069-.006,0-.019.017a5.652,5.652,0,0,0-.92,1.027l-.014-.073c-.01-.053-.02-.108-.029-.168,0-.013,0-.026-.006-.039,0-.031-.009-.062-.013-.093s-.005-.038-.007-.057v0c0-.01,0-.021,0-.031s0-.035-.006-.053,0-.042-.006-.062l0-.021c0-.013,0-.027,0-.041,0-.033-.005-.067-.008-.1,0-.014,0-.028,0-.042s0-.046,0-.071v0c0-.024,0-.047,0-.07s0-.048,0-.073,0-.076,0-.115V12.61H1778v1.44l0,0c0,.05,0,.1,0,.15s0,.078,0,.118c0,.019,0,.039,0,.059s0,.019,0,.029,0,.032,0,.048,0,.032,0,.047,0,.023,0,.036l0,.053q0,.036,0,.073v.007c0,.03,0,.059.007.088s0,.059.007.088v0s0,.006,0,.008c0,.028.005.056.008.084s0,.029,0,.043v0c0,.018,0,.036.006.054s0,.009,0,.014c0,.024.006.048.009.072s.006.047.01.071l.009.061.01.061.007.043v.006l.01.06c.01.057.021.114.033.176l0,.014.006.027c.006.029.012.059.019.088s.011.048.016.071l.008.036c.005.022.011.045.016.067s.014.057.022.085l.023.085c.025.088.05.175.077.258.053.167.113.334.18.5.024.06.049.119.074.176l.036.082.022.048.011.023.012.025.018.039.033.068.011.021.046.091v0l.047.09.012.022.034.062.021.038.038.068.005.009.054.092.039.065.027.044.034.054.035.054.031.047,0,0,.008.012.008.012.021.032.036.054.048.07c.041.059.084.117.126.174v0l0,0,0,0a7.064,7.064,0,0,0,.6.7l.05.051.032.032.049.048c.141.137.291.27.445.4.072.059.147.118.223.174l0,0h0l.128.094.056.04.052.036.024.017.046.031.062.041.062.04.056.036.039.024.059.036h0l.076.045.076.044.145.08.051.027,0,0,.013.007.039.02.061.031,0,0,.06.03.1.048c.058.028.121.056.186.084l.06.026.019.008.064.027.043.017.055.022.061.024.123.046.062.022.04.014.062.021.13.042.061.019.062.018.081.023.057.016.078.02.078.02.08.019c.049,0,.1.005.154.006h.073q.079,0,.156-.006l.01,0,.06-.014.087-.022.077-.02.092-.025.1-.03.04-.012.068-.021.016-.005.059-.019.084-.028.047-.016.043-.015c.144-.051.288-.109.43-.171.065-.028.127-.057.186-.084l.1-.048.059-.03.005,0,.059-.031.039-.02.014-.007,0,0,.05-.027.145-.08.076-.044.075-.045,0,0,.059-.036.04-.024.055-.035.063-.04.062-.041.046-.031.024-.017.052-.036.056-.04c.04-.028.082-.059.129-.094h0l0,0,.042-.032.091-.07.09-.072c.154-.125.3-.258.444-.4l.049-.048.032-.032.051-.051a7.1,7.1,0,0,0,.6-.7l0,0,0,0v0c.043-.057.085-.115.126-.173l.05-.072.049-.072v0l.049-.074v0l.045-.07.005-.008.025-.041.027-.043c.021-.034.048-.079.074-.125l.027-.046.048-.085.025-.045v0c.026-.048.049-.092.071-.133l.034-.067.032-.064,0,0,.03-.062.027-.057.027-.058.042-.095c.025-.057.05-.116.074-.176.066-.164.127-.331.18-.5a7,7,0,0,0,.19-.731c.006-.028.011-.056.016-.083s.008-.042.011-.063l0-.02,0-.01.014-.083.012-.074c0-.021.007-.043.01-.064V15.2l0-.017.01-.074c0-.011,0-.022,0-.033s.006-.051.009-.076v-.006c.007-.062.013-.125.019-.188,0-.009,0-.019,0-.028s0-.048.006-.072V14.7c0-.031,0-.063.006-.094s0-.061,0-.091v0c0-.023,0-.045,0-.067,0,0,0-.006,0-.009,0-.021,0-.041,0-.062v0q0-.033,0-.067c0-.034,0-.067,0-.1,0-.05,0-.1,0-.15l0,0v-2.1l0,0c-.171-.153-.349-.3-.529-.436-.139-.106-.283-.208-.429-.3s-.295-.19-.446-.277a8.389,8.389,0,0,0-1.4-.647l-.023-.008a8.344,8.344,0,0,0-1.381-.355,8.483,8.483,0,0,0-1.4-.117h-4.2V4.217h1.393a4.206,4.206,0,0,0,1.406-.24c.059-.021.118-.043.176-.067a4.2,4.2,0,0,0,1.223-.761,4.2,4.2,0,0,0,1.223.761c.058.023.117.046.176.067a4.206,4.206,0,0,0,1.406.24h1.393v2.8h1.422V2.795h-2.814a2.8,2.8,0,0,1-.7-.088m-5.252,14.584-.005-.007v-.051l.005.006Zm6.291,0-.005.007v-.059l.005-.006Z" transform="translate(-1743.371)" fill="#fff"/>
      <path id="Trazado_62157" data-name="Trazado 62157" d="M1932.656,620.779a.974.974,0,0,0-1.339-.024l0,0a.975.975,0,0,0-.255,1.05c.007.019.013.033.019.047a.974.974,0,0,0,1.5.381.953.953,0,0,0,.1-.094.973.973,0,0,0-.027-1.362" transform="translate(-1893.391 -608.415)" fill="#fff"/>
      <path id="Trazado_62158" data-name="Trazado 62158" d="M2022.448,728.7a.887.887,0,0,0-.949-.112.9.9,0,0,0-.177.114l-.036.031a.883.883,0,0,0-.286.652.885.885,0,0,0,.233.6.893.893,0,0,0,.161.139.887.887,0,0,0,.932.032.9.9,0,0,0,.194-.15.889.889,0,0,0,.121-.155.879.879,0,0,0,.105-.251.9.9,0,0,0,.026-.212.884.884,0,0,0-.271-.638c-.016-.016-.035-.032-.054-.048" transform="translate(-1981.638 -714.312)" fill="#fff"/>
      <path id="Trazado_62159" data-name="Trazado 62159" d="M2102.077,621.853a.963.963,0,0,0,.181.28.973.973,0,0,0,1.323.1.933.933,0,0,0,.1-.094.952.952,0,0,0,.136-.184.973.973,0,0,0-.163-1.179.962.962,0,0,0-.189-.145.974.974,0,0,0-1.15.121l0,0a1.014,1.014,0,0,0-.1.111.972.972,0,0,0-.211.606.975.975,0,0,0,.059.334c.007.019.013.033.019.047" transform="translate(-2061.061 -608.414)" fill="#fff"/>
    </g>
  </g>
</svg>
